<?xml version="1.0" encoding="UTF-8" standalone="no"?>
<svg
   xmlns:dc="http://purl.org/dc/elements/1.1/"
   xmlns:cc="http://creativecommons.org/ns#"
   xmlns:rdf="http://www.w3.org/1999/02/22-rdf-syntax-ns#"
   xmlns:svg="http://www.w3.org/2000/svg"
   xmlns="http://www.w3.org/2000/svg"
   xmlns:sodipodi="http://sodipodi.sourceforge.net/DTD/sodipodi-0.dtd"
   xmlns:inkscape="http://www.inkscape.org/namespaces/inkscape"
   version="1.0"
   width="64px"
   height="64px"
   viewBox="0 0 128 128"
   xml:space="preserve"
   id="svg8"
   sodipodi:docname="loading.svg"
   inkscape:version="0.92.5 (2060ec1f9f, 2020-04-08)"><metadata
     id="metadata14"><rdf:RDF><cc:Work
         rdf:about=""><dc:format>image/svg+xml</dc:format><dc:type
           rdf:resource="http://purl.org/dc/dcmitype/StillImage" /></cc:Work></rdf:RDF></metadata><defs
     id="defs12" /><sodipodi:namedview
     pagecolor="#ffffff"
     bordercolor="#666666"
     borderopacity="1"
     objecttolerance="10"
     gridtolerance="10"
     guidetolerance="10"
     inkscape:pageopacity="0"
     inkscape:pageshadow="2"
     inkscape:window-width="1366"
     inkscape:window-height="703"
     id="namedview10"
     showgrid="false"
     inkscape:zoom="3.6875"
     inkscape:cx="42.169492"
     inkscape:cy="32"
     inkscape:window-x="0"
     inkscape:window-y="0"
     inkscape:window-maximized="1"
     inkscape:current-layer="g6" /><circle
     cx="64"
     cy="64"
     r="63.31"
     fill="#ffffff"
     fill-opacity="0"
     id="circle2" /><g
     id="g6"><path
       d="M3.13 44.22a64 64 0 1 0 80.65-41.1 64 64 0 0 0-80.65 41.1zm34.15-4.83a10.63 10.63 0 1 1-13.4 6.8 10.63 10.63 0 0 1 13.4-6.8zm7.85 82.66A61.06 61.06 0 0 1 5.7 45.86 30.53 30.53 0 0 0 64 64a30.53 30.53 0 0 1 58.3 18.12l.35-1.14-.58 1.9a61.06 61.06 0 0 1-76.94 39.2zM106.9 73.2A10.63 10.63 0 1 0 93.5 80a10.63 10.63 0 0 0 13.4-6.8z"
       id="path4"
       fill-opacity="1"
       fill="#f5f5f5" /></g></svg>